<svg width="94" height="94" viewBox="0 0 94 94" fill="none" xmlns="http://www.w3.org/2000/svg">
<path fill-rule="evenodd" clip-rule="evenodd" d="M89.4637 68.0746C93.9916 58.3054 94.7722 49.1564 93.367 39.8523C92.2741 32.8743 89.776 26.0513 85.092 19.3834C83.5307 17.0574 81.3449 15.0415 79.0029 12.7155C74.475 8.21855 69.4788 4.8071 64.6387 3.25643C62.1406 2.48109 59.7986 1.70571 57.4566 1.08544C52.7727 -2.83752e-05 47.9326 0 43.4047 0C41.0628 0 38.7208 0.620242 36.3788 1.08544C31.851 1.86078 26.6986 3.56654 22.6392 6.82296C18.1113 10.2344 13.4274 14.4213 9.36793 19.5385C5.62076 24.3456 2.81038 29.3078 1.56132 33.9598C0.780661 36.2858 0.156131 38.6118 0.156131 41.0929C0.156131 42.1784 0 43.4189 0 44.5043C0 47.9158 -3.02452e-07 51.6375 0.312264 54.8939C0.468396 57.2199 1.40519 59.3908 2.18585 61.7169C2.49811 62.8023 2.81038 64.0429 3.27877 65.1284C3.74717 66.3689 4.68396 67.2993 5.30849 68.5398C6.40142 70.8658 7.80661 73.1919 9.68019 75.3628C11.7099 77.6888 13.4274 80.0148 15.6132 82.0307C17.7991 84.2017 20.2972 85.7523 22.9514 87.4581C25.2934 89.0087 27.6354 89.7841 30.1335 90.4043C32.4755 91.0246 34.6613 92.2652 37.3156 92.4202C37.4717 92.5753 37.6279 92.5753 37.3156 92.5753C37.1595 92.5753 37.0033 92.4202 36.6911 92.5753C36.5349 92.5753 36.3788 92.5753 36.5349 92.5753H36.6911C40.126 93.6608 43.8731 94.126 47.4642 93.9709C51.0552 93.8159 54.6463 93.6608 58.2373 92.4202C59.9548 91.8 61.8283 91.3348 63.5458 90.7145C65.4194 90.0942 66.9807 89.0087 68.8543 88.0783C72.2892 86.3726 75.8802 84.0466 79.3151 81.4104C83.9991 77.6888 87.2779 72.7267 89.4637 68.0746ZM84.6236 40.9378C85.2482 44.5044 83.843 48.381 80.2519 51.6375C79.9397 51.6375 80.2519 51.0172 80.2519 50.552C80.5642 47.6057 80.4081 44.3493 79.7835 41.403C79.159 37.9915 78.2222 34.425 76.0364 31.1686C80.7203 32.5642 83.9991 37.2162 84.6236 40.9378ZM54.6463 10.5446C54.8024 10.5446 54.8024 10.5446 54.9585 10.6996C57.4566 12.2503 59.3302 14.8865 60.4231 16.9023C53.2411 14.2662 46.2151 14.1111 39.3453 15.9719C42.6241 9.30403 49.65 8.21856 54.6463 10.5446ZM14.9887 27.1368C17.6429 24.6557 21.0778 24.0354 23.8882 23.7253C24.0444 23.7253 24.0444 23.7253 24.2005 23.7253V23.8804C18.7359 30.7034 15.1448 37.8365 14.9887 44.1942C10.1486 39.2321 8.89953 32.8743 14.9887 27.1368ZM71.1963 69.6253C71.3524 69.6253 71.3524 69.7804 71.1963 69.6253C72.1331 76.1381 62.4529 82.3409 57.3005 81.4104C56.0514 81.2554 54.8024 80.325 53.7095 80.0148C59.3302 77.8439 65.5755 75.828 71.1963 69.6253ZM17.7991 62.4922C18.2675 63.7327 19.5165 65.4385 20.7656 66.9891C21.7024 68.2297 22.6392 69.6253 23.7321 70.7108C25.2934 72.2615 27.167 73.3469 28.8845 74.5875C30.4458 75.673 32.0071 76.7584 33.7245 77.2236C30.4458 79.0844 26.3863 78.7743 22.9514 76.7584C21.234 75.828 19.3604 73.502 18.4236 71.4861C17.0184 68.85 16.7061 65.4385 17.7991 62.4922Z" fill="black"/>
<path fill-rule="evenodd" clip-rule="evenodd" d="M80.408 30.7034C79.9396 30.8584 79.6273 31.0135 79.1589 31.1686C79.0028 31.1686 78.6906 30.8584 78.5344 30.8584C79.0028 30.7034 79.7835 30.0831 80.408 30.7034Z" fill="white"/>
<path fill-rule="evenodd" clip-rule="evenodd" d="M79.159 30.0834C78.3783 30.3936 77.7538 30.7037 76.9731 30.0834C77.7538 29.6182 78.3783 29.4632 79.159 30.0834Z" fill="white"/>
<path fill-rule="evenodd" clip-rule="evenodd" d="M91.9618 46.3652C91.6496 46.5203 91.3373 46.3652 91.025 46.5203C90.8689 46.2102 90.8689 46.0551 90.8689 45.745C91.4934 45.4348 92.2741 45.5899 91.9618 46.3652Z" fill="white"/>
<path fill-rule="evenodd" clip-rule="evenodd" d="M91.9616 46.9856C91.9616 47.2958 91.9616 47.4508 91.9616 47.761C91.6493 47.761 91.3371 47.9161 91.0248 47.9161C90.8687 47.6059 90.8687 47.1407 91.0248 46.8306C91.3371 47.1407 91.6493 46.6755 91.9616 46.9856Z" fill="white"/>
<path fill-rule="evenodd" clip-rule="evenodd" d="M75.7239 33.1846C75.88 33.3396 76.1923 33.6498 75.88 33.8048C75.88 33.6498 75.5678 33.4947 75.7239 33.1846Z" fill="white"/>
<path fill-rule="evenodd" clip-rule="evenodd" d="M76.3485 34.27L76.5046 34.425C76.3485 34.5801 76.3485 34.5801 76.1924 34.7352C76.0362 34.4251 76.1924 34.4251 76.3485 34.27Z" fill="white"/>
<path fill-rule="evenodd" clip-rule="evenodd" d="M76.6608 34.8901C76.973 35.0452 76.8169 35.2003 76.973 35.3553C76.8169 35.5104 76.6608 35.6655 76.6608 35.8206C76.5046 35.5104 76.3485 35.2003 76.6608 34.8901Z" fill="white"/>
<path fill-rule="evenodd" clip-rule="evenodd" d="M61.3601 21.7096C60.111 21.3994 59.0181 20.9342 57.769 20.6241C57.9252 20.3139 58.0813 20.469 58.2374 20.314C59.3304 20.7792 60.8917 20.7792 61.3601 21.7096Z" fill="white"/>
<path fill-rule="evenodd" clip-rule="evenodd" d="M77.2852 35.8208C77.5975 35.9759 77.4414 36.286 77.7536 36.4411C77.5975 36.7512 77.4414 36.7512 77.1291 36.9062C76.973 36.5961 76.6607 36.286 77.2852 35.8208Z" fill="white"/>
<path fill-rule="evenodd" clip-rule="evenodd" d="M77.754 36.9062C77.754 37.0613 77.754 37.0613 77.9101 37.2164C77.754 37.3715 77.5978 37.6816 77.4417 37.8367C76.9733 37.5265 77.5978 37.2164 77.754 36.9062Z" fill="white"/>
<path fill-rule="evenodd" clip-rule="evenodd" d="M78.0661 37.8364C78.3783 37.9915 78.0661 38.1465 78.2222 38.3016C78.0661 38.3016 77.9099 38.6118 77.7538 38.7668C77.5977 38.6118 77.5977 38.4567 77.5977 38.3016C77.5977 37.9915 77.9099 38.1466 78.0661 37.8364Z" fill="white"/>
<path fill-rule="evenodd" clip-rule="evenodd" d="M61.204 23.7255C59.4865 22.9501 57.613 22.1748 55.8955 21.5545C56.2078 21.3995 56.3639 21.2444 56.6762 21.0894C58.2375 21.7096 59.6427 22.3299 61.204 22.9501C61.3601 23.2603 61.0479 23.5704 61.204 23.7255Z" fill="white"/>
<path fill-rule="evenodd" clip-rule="evenodd" d="M57.6128 20.0035C57.3006 20.3136 56.9883 20.3136 56.676 20.0035C56.8322 20.0035 57.3006 19.8484 57.6128 20.0035Z" fill="white"/>
<path fill-rule="evenodd" clip-rule="evenodd" d="M73.2259 54.5839C72.9136 54.2738 73.0697 53.8086 73.2259 53.4985C73.8504 48.8464 73.8504 44.3495 72.9136 39.6975C72.6014 37.9917 72.133 36.1309 71.5084 34.7353C71.1962 34.115 69.3226 31.9441 69.4787 31.1687C69.6348 31.0137 69.6348 31.0137 69.791 31.0137C72.4452 34.7353 73.382 38.7671 73.8504 42.7988C74.1627 45.9002 74.3188 48.6914 74.0065 51.7927C74.0065 52.2579 73.8504 52.8782 73.8504 53.3434C73.8504 53.9637 73.8504 54.5839 73.2259 54.5839Z" fill="white"/>
<path fill-rule="evenodd" clip-rule="evenodd" d="M78.2223 38.7671C78.3784 39.0772 78.3784 39.5424 77.91 39.8525C77.5978 39.5424 77.7539 39.2323 78.2223 38.7671Z" fill="white"/>
<path fill-rule="evenodd" clip-rule="evenodd" d="M56.3636 19.5386C56.3636 19.6936 55.739 20.0037 55.4268 19.6936C55.739 19.5385 56.0513 19.5386 56.3636 19.5386Z" fill="white"/>
<path fill-rule="evenodd" clip-rule="evenodd" d="M90.5569 50.2417C91.0252 54.5836 89.7762 59.5458 88.0587 64.1978C87.9026 64.818 87.5903 65.5934 86.9658 65.9035C88.6833 60.6312 90.4007 55.3589 90.5569 50.2417Z" fill="white"/>
<path fill-rule="evenodd" clip-rule="evenodd" d="M78.5345 40.0073C78.5345 40.1624 78.6907 40.3175 78.6907 40.3175C78.5345 40.4725 78.3784 40.6276 78.2223 40.7827C77.91 40.4725 78.0661 40.3175 78.5345 40.0073Z" fill="white"/>
<path fill-rule="evenodd" clip-rule="evenodd" d="M55.1149 19.3832C54.8026 19.6933 54.6465 19.6933 54.3342 19.5383C54.4904 19.3832 54.8026 19.0731 55.1149 19.3832Z" fill="white"/>
<path fill-rule="evenodd" clip-rule="evenodd" d="M78.6906 41.0928C79.0028 41.4029 79.0028 41.8681 78.3783 42.3333C78.2222 42.1782 78.2222 41.8681 78.2222 41.713C78.3783 41.4029 78.5344 41.2478 78.6906 41.0928Z" fill="white"/>
<path fill-rule="evenodd" clip-rule="evenodd" d="M56.0517 20.934C55.5833 21.3992 54.9588 21.3992 54.3342 21.0891C54.9588 20.7789 55.5833 20.4688 56.0517 20.934Z" fill="white"/>
<path fill-rule="evenodd" clip-rule="evenodd" d="M53.8656 19.0735C53.5534 19.3837 53.3972 19.2286 53.085 19.2286C53.085 18.9185 53.5534 18.9185 53.8656 19.0735Z" fill="white"/>
<path fill-rule="evenodd" clip-rule="evenodd" d="M54.6462 20.469C54.49 20.9342 53.7094 21.0894 53.241 21.0894C53.5532 20.6242 54.1778 20.314 54.6462 20.469Z" fill="white"/>
<path fill-rule="evenodd" clip-rule="evenodd" d="M52.4605 18.7632C52.4605 19.0733 51.8359 19.2284 51.5237 19.0733C51.8359 18.7632 52.1482 18.7632 52.4605 18.7632Z" fill="white"/>
<path fill-rule="evenodd" clip-rule="evenodd" d="M79.0028 42.4883C79.4712 44.8143 79.6273 47.9157 79.4712 50.5518C79.3151 51.3272 79.4712 52.5677 78.5344 53.0329C78.8467 49.7764 78.8467 46.365 78.5344 43.1085C78.6906 42.7984 78.8467 42.6433 79.0028 42.4883Z" fill="white"/>
<path fill-rule="evenodd" clip-rule="evenodd" d="M53.5534 20.1587C53.2411 20.6239 52.4605 21.089 51.8359 20.6238C52.4605 20.4688 53.085 20.0036 53.5534 20.1587Z" fill="white"/>
<path fill-rule="evenodd" clip-rule="evenodd" d="M51.3674 18.608C50.899 19.2283 48.8693 18.9181 47.7764 18.9181C44.4976 18.763 41.2188 19.5384 38.2523 20.934C37.94 19.6935 39.3452 19.5384 40.1259 19.3833C42.624 18.7631 45.5905 18.7631 48.0886 18.2979C49.1815 18.4529 50.2745 18.4529 51.3674 18.608Z" fill="white"/>
<path fill-rule="evenodd" clip-rule="evenodd" d="M59.955 26.6716C59.955 26.8267 59.955 26.9818 59.7988 27.1369C59.6427 26.9818 59.3304 26.9818 59.1743 26.8267C59.3304 26.6716 59.3304 26.6717 59.4866 26.5166C59.4866 26.5166 59.7988 26.9818 59.955 26.6716Z" fill="white"/>
<path fill-rule="evenodd" clip-rule="evenodd" d="M66.5125 33.0292C66.3563 33.1843 66.2002 33.3394 66.0441 33.4944L65.8879 33.3394C66.0441 33.3394 66.2002 32.7191 66.5125 33.0292Z" fill="white"/>
<path fill-rule="evenodd" clip-rule="evenodd" d="M66.8245 33.4946L66.9807 33.6497C66.8245 33.8047 66.8245 34.1149 66.5123 34.27C66.3561 34.1149 66.6684 33.8048 66.8245 33.4946Z" fill="white"/>
<path fill-rule="evenodd" clip-rule="evenodd" d="M57.9249 25.7412L58.0811 25.8962C57.9249 26.0513 57.7688 26.2064 57.6127 26.3615C57.4566 26.2064 57.3004 26.3615 57.1443 26.2064C57.4566 26.0513 57.6127 25.8963 57.9249 25.7412Z" fill="white"/>
<path fill-rule="evenodd" clip-rule="evenodd" d="M67.1367 34.27C67.2928 34.27 67.2928 34.27 67.449 34.425C67.449 34.5801 67.1367 34.8903 67.1367 35.0454C66.5122 34.7352 67.1367 34.4251 67.1367 34.27Z" fill="white"/>
<path fill-rule="evenodd" clip-rule="evenodd" d="M67.7613 34.8901C67.9174 35.0452 67.449 35.5104 67.2929 35.6655C67.1368 35.3553 67.6052 35.2003 67.7613 34.8901Z" fill="white"/>
<path fill-rule="evenodd" clip-rule="evenodd" d="M56.9882 25.4312C57.1443 25.7413 56.3637 26.0514 56.2075 25.8963C56.5198 25.7413 56.832 25.5862 56.9882 25.4312Z" fill="white"/>
<path fill-rule="evenodd" clip-rule="evenodd" d="M68.0737 35.5107C68.2298 35.8209 68.0737 36.131 67.7614 36.4412C67.293 36.131 67.7614 35.8209 68.0737 35.5107Z" fill="white"/>
<path fill-rule="evenodd" clip-rule="evenodd" d="M50.5868 20.0039C50.4307 20.314 49.65 20.6242 49.1816 20.7792C49.3378 20.159 50.1184 20.0039 50.5868 20.0039Z" fill="white"/>
<path fill-rule="evenodd" clip-rule="evenodd" d="M56.0513 24.9658C56.2074 25.276 55.1145 25.8962 54.8022 25.431C55.2706 25.2759 55.5829 24.9658 56.0513 24.9658Z" fill="white"/>
<path fill-rule="evenodd" clip-rule="evenodd" d="M68.3859 36.1309C68.6982 36.2859 68.542 36.441 68.6982 36.441C68.542 36.5961 68.3859 36.9062 68.2298 37.0613C67.9175 36.9062 68.0737 36.441 68.3859 36.1309Z" fill="white"/>
<path fill-rule="evenodd" clip-rule="evenodd" d="M68.8542 36.9062C69.0103 37.2164 68.6981 37.5265 68.3858 37.6816C68.0735 37.5265 68.6981 37.2164 68.8542 36.9062Z" fill="white"/>
<path fill-rule="evenodd" clip-rule="evenodd" d="M54.9587 24.6557C54.8025 24.9659 54.0219 25.431 53.5535 25.1209C54.0219 24.9658 54.4903 24.5007 54.9587 24.6557Z" fill="white"/>
<path fill-rule="evenodd" clip-rule="evenodd" d="M69.1667 37.5264C69.4789 37.8365 69.1667 38.3017 68.8544 38.6119C68.386 38.3017 68.8544 37.9916 69.1667 37.5264Z" fill="white"/>
<path fill-rule="evenodd" clip-rule="evenodd" d="M58.5497 28.5324C55.8954 27.9122 52.7728 26.6716 50.2747 26.5166C50.7431 25.8963 51.6798 26.2064 52.3044 26.3615C54.178 26.6716 56.6761 27.447 58.5497 28.3774C58.5497 28.3774 58.3935 28.5324 58.5497 28.5324Z" fill="white"/>
<path fill-rule="evenodd" clip-rule="evenodd" d="M69.4789 38.457C69.4789 38.6121 69.4789 38.7672 69.635 38.7672C69.4789 38.9223 69.1666 39.2324 69.0105 39.3874C68.5421 39.2324 69.1666 38.7672 69.4789 38.457Z" fill="white"/>
<path fill-rule="evenodd" clip-rule="evenodd" d="M69.7909 39.3872C69.7909 39.5423 69.947 39.6974 69.947 39.6974C69.7909 39.8524 69.4786 40.3176 69.3225 40.3176C68.8541 40.0075 69.4786 39.6973 69.7909 39.3872Z" fill="white"/>
<path fill-rule="evenodd" clip-rule="evenodd" d="M52.4606 24.0352C52.3045 24.3453 51.5238 24.9656 51.0554 24.6555C51.5238 24.3453 51.9922 23.8801 52.4606 24.0352Z" fill="white"/>
<path fill-rule="evenodd" clip-rule="evenodd" d="M69.947 40.3174C70.1032 40.6275 70.1032 40.9377 70.2593 41.2478C70.1032 41.4029 69.7909 41.5579 69.6348 41.8681C69.4786 41.5579 69.4786 41.2478 69.3225 40.9376C69.4786 40.4724 69.7909 40.4725 69.947 40.3174Z" fill="white"/>
<path fill-rule="evenodd" clip-rule="evenodd" d="M51.0553 23.8807C50.7431 24.3459 49.8063 24.8111 49.3379 24.5009C49.8063 24.0357 50.4308 23.7256 51.0553 23.8807Z" fill="white"/>
<path fill-rule="evenodd" clip-rule="evenodd" d="M57.4565 30.2384C55.4268 29.4631 53.397 28.6878 51.2112 27.9124C51.9918 27.6023 52.9286 28.0675 53.7093 28.5327C54.9584 28.9979 56.6758 28.9979 57.4565 30.2384Z" fill="white"/>
<path fill-rule="evenodd" clip-rule="evenodd" d="M70.4156 41.7134C70.4156 42.6438 71.6646 44.9698 70.4156 46.0553C70.1033 45.59 70.2594 44.3495 70.1033 43.5742C69.9472 42.7989 69.3226 42.1786 70.4156 41.7134Z" fill="white"/>
<path fill-rule="evenodd" clip-rule="evenodd" d="M49.1817 23.7256C49.1817 24.3459 48.0888 24.5009 47.6204 24.5009C47.9326 24.1908 48.7133 23.8807 49.1817 23.7256Z" fill="white"/>
<path fill-rule="evenodd" clip-rule="evenodd" d="M64.9509 38.7671C65.2631 38.9222 65.107 39.2323 64.7947 39.5424C64.4825 39.2323 64.6386 39.0772 64.9509 38.7671Z" fill="white"/>
<path fill-rule="evenodd" clip-rule="evenodd" d="M64.3264 38.1465C64.6386 38.1465 64.7948 38.6117 64.4825 38.7667C64.1703 38.6117 64.3264 38.3016 64.3264 38.1465Z" fill="white"/>
<path fill-rule="evenodd" clip-rule="evenodd" d="M65.2634 39.542C65.5756 39.6971 65.2634 40.0072 65.1072 40.1623C64.795 40.0072 65.1072 39.6971 65.2634 39.542Z" fill="white"/>
<path fill-rule="evenodd" clip-rule="evenodd" d="M47.6201 23.8804C47.3078 24.8108 45.7465 24.8108 44.6536 24.6557C45.5904 23.7253 46.5271 24.3456 47.6201 23.8804Z" fill="white"/>
<path fill-rule="evenodd" clip-rule="evenodd" d="M65.5754 40.1626C65.5754 40.3177 65.7316 40.4727 65.7316 40.7829C65.5754 40.9379 65.4193 41.093 65.2632 41.2481C65.2632 40.7829 65.2632 40.4727 65.5754 40.1626Z" fill="white"/>
<path fill-rule="evenodd" clip-rule="evenodd" d="M48.2449 26.6715C48.401 26.2063 49.0255 25.7411 49.3378 25.8961C49.4939 26.3613 48.5571 26.6715 48.2449 26.6715Z" fill="white"/>
<path fill-rule="evenodd" clip-rule="evenodd" d="M63.0773 38.457C63.2334 38.6121 63.0773 38.9222 62.9212 39.0773C62.6089 38.9222 62.7651 38.6121 63.0773 38.457Z" fill="white"/>
<path fill-rule="evenodd" clip-rule="evenodd" d="M65.8878 41.248C66.2001 41.5582 66.044 42.0234 65.5756 42.3335C65.4194 42.0234 65.4194 41.7132 65.8878 41.248Z" fill="white"/>
<path fill-rule="evenodd" clip-rule="evenodd" d="M63.5458 39.2319C63.5458 39.387 63.7019 39.387 63.7019 39.5421C63.5458 39.6972 63.5458 39.6971 63.3897 39.8522C63.2335 39.6971 63.2335 39.6972 63.0774 39.5421C63.0774 39.387 63.3897 39.387 63.5458 39.2319Z" fill="white"/>
<path fill-rule="evenodd" clip-rule="evenodd" d="M48.4008 25.7412C48.2446 26.2064 47.6201 26.6716 47.3079 26.6716C47.3079 26.3614 48.0885 25.7412 48.4008 25.7412Z" fill="white"/>
<path fill-rule="evenodd" clip-rule="evenodd" d="M71.0403 46.0547C71.1965 46.5199 71.1965 46.9851 70.4158 47.6054C70.2597 47.1402 70.2597 46.5199 71.0403 46.0547Z" fill="white"/>
<path fill-rule="evenodd" clip-rule="evenodd" d="M64.0141 40.0073C64.1702 40.1624 64.0141 40.1624 64.1702 40.3175C64.0141 40.4725 64.0141 40.4725 63.858 40.6276C63.5457 40.4725 63.7018 40.1624 64.0141 40.0073Z" fill="white"/>
<path fill-rule="evenodd" clip-rule="evenodd" d="M64.3265 40.7827C64.4826 40.9378 64.3265 41.0929 64.1704 41.2479C63.702 41.0929 64.1703 40.9378 64.3265 40.7827Z" fill="white"/>
<path fill-rule="evenodd" clip-rule="evenodd" d="M66.044 42.3335C66.3563 42.6436 65.8879 42.7987 65.7318 43.1088C65.5756 42.9538 65.8879 42.6436 66.044 42.3335Z" fill="white"/>
<path fill-rule="evenodd" clip-rule="evenodd" d="M47.4639 25.8966C46.9955 26.0516 46.6832 26.982 46.2148 26.6719C46.5271 26.3618 46.9955 25.5864 47.4639 25.8966Z" fill="white"/>
<path fill-rule="evenodd" clip-rule="evenodd" d="M64.4825 41.4028C64.6387 41.713 64.7948 41.868 64.4825 42.1782C64.3264 42.1782 64.1703 41.713 64.4825 41.4028Z" fill="white"/>
<path fill-rule="evenodd" clip-rule="evenodd" d="M66.2001 43.1089C66.2001 44.1944 66.9807 45.1248 66.044 46.2102C65.8878 45.4349 65.7317 44.5045 65.7317 43.7291C65.8878 43.5741 66.044 43.264 66.2001 43.1089Z" fill="white"/>
<path fill-rule="evenodd" clip-rule="evenodd" d="M64.9508 42.3335C65.1069 42.6436 65.263 42.7987 64.9508 43.1088C64.7946 42.9538 64.4824 42.6436 64.9508 42.3335Z" fill="white"/>
<path fill-rule="evenodd" clip-rule="evenodd" d="M70.8839 47.7607C71.04 48.2259 71.04 48.5361 70.4155 49.0013C70.1032 48.6912 70.4155 48.2259 70.8839 47.7607Z" fill="white"/>
<path fill-rule="evenodd" clip-rule="evenodd" d="M46.3711 25.896C46.0589 26.5163 45.2782 26.9815 44.8098 26.9815C45.1221 26.3612 45.9027 26.0511 46.3711 25.896Z" fill="white"/>
<path fill-rule="evenodd" clip-rule="evenodd" d="M65.1072 43.2637C65.2633 43.4187 65.2633 43.7289 64.9511 43.8839C65.5756 44.6593 65.4195 45.8998 65.2633 46.8302C64.9511 46.6751 65.1072 45.7448 65.1072 45.1245C65.1072 44.5042 64.7949 44.039 64.7949 43.5738C64.9511 43.4188 65.1072 43.4187 65.1072 43.2637Z" fill="white"/>
<path fill-rule="evenodd" clip-rule="evenodd" d="M44.1854 24.6558C44.1854 25.121 43.717 24.9659 43.4048 25.1209C43.4048 24.6557 43.8732 24.8108 44.1854 24.6558Z" fill="white"/>
<path fill-rule="evenodd" clip-rule="evenodd" d="M70.8839 49.4668C71.04 49.932 70.7278 50.0871 70.4155 50.3972C70.1032 50.2421 70.4155 49.6219 70.8839 49.4668Z" fill="white"/>
<path fill-rule="evenodd" clip-rule="evenodd" d="M44.6537 26.3613C44.6537 26.6715 44.0292 27.2917 43.873 26.9816C44.0292 26.6715 44.3414 26.3613 44.6537 26.3613Z" fill="white"/>
<path fill-rule="evenodd" clip-rule="evenodd" d="M66.6683 46.0547C66.8245 46.3648 66.8245 46.83 66.3561 47.1402C66.0438 46.83 66.1999 46.5199 66.6683 46.0547Z" fill="white"/>
<path fill-rule="evenodd" clip-rule="evenodd" d="M70.7281 50.8623C70.8842 51.1724 70.4158 51.6377 70.1035 51.7927C69.9474 51.4826 70.4158 51.1724 70.7281 50.8623Z" fill="white"/>
<path fill-rule="evenodd" clip-rule="evenodd" d="M66.6687 47.2954C66.8248 47.6055 66.6687 47.9157 66.3564 48.2258C66.0441 47.9157 66.3564 47.6055 66.6687 47.2954Z" fill="white"/>
<path fill-rule="evenodd" clip-rule="evenodd" d="M43.4047 26.6714C43.4047 26.9815 42.7802 27.4467 42.624 27.4467C42.624 27.1366 43.0924 26.6714 43.4047 26.6714Z" fill="white"/>
<path fill-rule="evenodd" clip-rule="evenodd" d="M87.1216 66.3691C87.1216 66.9894 86.6532 67.7647 85.8726 67.7647C85.8726 67.1445 86.4971 66.3691 87.1216 66.3691Z" fill="white"/>
<path fill-rule="evenodd" clip-rule="evenodd" d="M65.5754 47.1406C65.5754 47.4508 65.7316 47.7609 65.4193 48.2261C65.2632 47.7609 65.1071 47.4508 65.5754 47.1406Z" fill="white"/>
<path fill-rule="evenodd" clip-rule="evenodd" d="M66.5124 48.5361C66.6685 48.8463 66.2001 49.1564 66.044 49.4665C65.8878 49.1564 66.2001 48.8463 66.5124 48.5361Z" fill="white"/>
<path fill-rule="evenodd" clip-rule="evenodd" d="M70.572 52.1025C70.572 52.5677 70.2597 52.8779 69.9475 53.3431C69.6352 53.0329 69.9475 52.2576 70.572 52.1025Z" fill="white"/>
<path fill-rule="evenodd" clip-rule="evenodd" d="M41.8434 27.1367C41.8434 27.6019 41.375 27.757 41.0627 27.757C41.0627 27.4468 41.6873 27.4469 41.8434 27.1367Z" fill="white"/>
<path fill-rule="evenodd" clip-rule="evenodd" d="M65.5757 48.3809C65.5757 48.691 65.5757 48.8461 65.2634 49.1562C65.1073 49.0011 65.2634 48.691 65.5757 48.3809Z" fill="white"/>
<path fill-rule="evenodd" clip-rule="evenodd" d="M40.282 25.896C40.5943 26.2061 39.9698 26.8264 39.6575 26.6713C39.3452 26.5163 40.1259 26.0511 40.282 25.896Z" fill="white"/>
<path fill-rule="evenodd" clip-rule="evenodd" d="M66.3562 49.6216C66.3562 50.2419 66.3562 51.1722 65.7316 51.4824C65.4194 50.8621 65.7316 50.2419 66.3562 49.6216Z" fill="white"/>
<path fill-rule="evenodd" clip-rule="evenodd" d="M86.497 68.0747C86.497 69.1602 85.5602 69.1602 84.7795 69.4703C84.7795 68.5399 85.8725 68.0747 86.497 68.0747Z" fill="white"/>
<path fill-rule="evenodd" clip-rule="evenodd" d="M65.4193 49.6216C65.5754 50.0868 65.2632 50.3969 65.1071 50.8621C64.9509 50.3969 64.9509 49.9317 65.4193 49.6216Z" fill="white"/>
<path fill-rule="evenodd" clip-rule="evenodd" d="M54.334 40.1627C54.0217 40.3178 53.7095 40.0077 53.3972 40.1627C53.3972 39.8526 54.0217 39.6975 54.334 40.1627Z" fill="white"/>
<path fill-rule="evenodd" clip-rule="evenodd" d="M54.8023 40.7828C54.49 40.7828 54.1777 40.9379 53.8655 40.6277C54.1777 40.4727 54.49 40.4727 54.8023 40.7828Z" fill="white"/>
<path fill-rule="evenodd" clip-rule="evenodd" d="M69.7912 55.0492C69.4789 55.2043 69.3228 55.5144 69.0105 55.2043C69.3228 55.0492 69.635 54.7391 69.7912 55.0492Z" fill="white"/>
<path fill-rule="evenodd" clip-rule="evenodd" d="M53.2412 40.6278C53.2412 40.9379 52.7728 40.9379 52.6167 40.7829C52.6167 40.3177 53.0851 40.7829 53.2412 40.6278Z" fill="white"/>
<path fill-rule="evenodd" clip-rule="evenodd" d="M68.698 54.4285C68.698 54.5836 68.2296 54.7386 68.0735 54.8937C67.9174 54.7386 67.9174 54.7386 67.7612 54.7386C67.7612 54.4285 68.2296 54.4285 68.3858 54.2734C68.5419 54.4285 68.698 54.5836 68.698 54.4285Z" fill="white"/>
<path fill-rule="evenodd" clip-rule="evenodd" d="M85.5606 69.7803C85.7167 69.7803 85.7167 69.9354 85.5606 69.9354C84.9361 70.4006 84.3115 70.5556 83.687 70.7107C84.1554 69.6252 85.0922 69.9353 85.5606 69.7803Z" fill="white"/>
<path fill-rule="evenodd" clip-rule="evenodd" d="M67.6052 53.9634C67.7614 54.1184 67.7614 54.1185 67.9175 54.2735C67.6052 54.2735 67.293 54.7387 66.9807 54.4286C67.1368 54.1185 67.293 53.9634 67.6052 53.9634Z" fill="white"/>
<path fill-rule="evenodd" clip-rule="evenodd" d="M67.137 53.6534C66.9809 53.8085 66.6686 53.8085 66.5125 54.1186C66.3563 54.1186 66.0441 53.9635 65.8879 53.8084C66.0441 53.6534 66.3563 53.4983 66.5125 53.3433C66.6686 53.4983 66.9809 53.3433 67.137 53.6534Z" fill="white"/>
<path fill-rule="evenodd" clip-rule="evenodd" d="M85.0922 70.7109C85.0922 71.7964 83.687 71.6413 83.0625 71.9515C83.3748 70.866 84.4677 71.3312 85.0922 70.7109Z" fill="white"/>
<path fill-rule="evenodd" clip-rule="evenodd" d="M84.3116 72.1064C84.1554 73.1919 82.7503 72.8818 82.1257 73.347C82.2819 72.2615 83.6871 72.5716 84.3116 72.1064Z" fill="white"/>
<path fill-rule="evenodd" clip-rule="evenodd" d="M44.1853 40.3175C43.5608 40.1624 42.7802 39.232 42.624 38.6117C44.0292 35.9756 46.5273 39.8523 44.1853 40.3175ZM43.7169 39.232C44.0292 39.5421 44.4976 39.5421 44.8099 39.232C45.2783 38.3016 43.4047 38.1465 43.7169 39.232Z" fill="white"/>
<path fill-rule="evenodd" clip-rule="evenodd" d="M55.271 50.0867C56.0517 48.2259 58.5498 49.9317 56.8323 51.0171C56.3639 51.1722 55.4271 51.0171 55.271 50.0867Z" fill="white"/>
<path fill-rule="evenodd" clip-rule="evenodd" d="M70.4156 62.1821C70.7278 62.3372 70.7278 62.6473 70.884 62.8024C70.5717 62.9575 70.2594 62.9574 69.9472 63.1125C69.6349 62.9574 69.791 62.6473 69.4788 62.4922C69.791 62.1821 70.1033 62.1821 70.4156 62.1821Z" fill="white"/>
<path fill-rule="evenodd" clip-rule="evenodd" d="M51.2115 45.435C49.3379 45.5901 47.4643 44.9698 45.5907 45.2799C46.8398 45.7451 48.7134 45.7452 50.1186 45.7452C50.587 45.7452 51.2115 45.7451 51.3676 46.2103C50.1186 46.2103 49.0256 46.5205 47.7766 45.9002C46.6837 46.2104 45.5907 46.2103 44.4978 46.0553C44.6539 45.5901 44.8101 45.1249 45.2785 44.6597C47.152 44.6597 48.8695 44.9698 50.7431 44.9698C51.0554 45.1249 51.2115 45.2799 51.2115 45.435Z" fill="white"/>
<path fill-rule="evenodd" clip-rule="evenodd" d="M71.5086 63.8876C71.0402 64.0427 70.5718 63.8876 70.2595 63.2674C70.8841 63.1123 71.3525 63.2673 71.5086 63.8876Z" fill="white"/>
<path fill-rule="evenodd" clip-rule="evenodd" d="M19.3602 47.2954C18.8918 46.6751 19.0479 45.7447 19.0479 44.9694C19.0479 42.7984 19.2041 40.4724 20.1409 38.1464C21.8583 33.9596 24.2003 29.4626 28.572 25.5859C28.572 25.5859 28.7281 25.5859 28.7281 25.741C28.8843 25.741 28.8843 25.741 28.7281 25.896C21.7022 33.1842 19.5163 40.3174 19.3602 47.2954Z" fill="white"/>
<path fill-rule="evenodd" clip-rule="evenodd" d="M30.1335 26.8265C30.4458 27.2917 29.8213 27.6018 29.509 27.912C25.2935 32.719 22.4831 38.1464 21.3901 43.1086C21.234 43.8839 21.234 44.6592 21.0779 45.4346C21.0779 46.0548 21.234 46.9853 20.6095 47.4505C20.2972 46.6751 20.4534 45.7447 20.6095 44.9694C20.9217 42.6434 21.5463 40.0072 22.6392 37.5261C24.0444 34.1146 26.5425 29.9278 29.9774 26.8265C29.9774 26.6714 30.1335 26.8265 30.2897 26.6714C30.1335 26.6714 30.1335 26.6714 30.1335 26.8265Z" fill="white"/>
<path fill-rule="evenodd" clip-rule="evenodd" d="M71.8207 64.5078C71.8207 64.6629 71.9768 64.973 72.133 65.1281C71.6646 65.1281 71.1962 65.2831 71.04 64.6628C71.3523 64.3527 71.6646 64.6629 71.8207 64.5078Z" fill="white"/>
<path fill-rule="evenodd" clip-rule="evenodd" d="M51.5238 46.6753C51.6799 46.8304 51.5238 46.9854 51.6799 47.1405C51.2115 47.2955 50.587 47.2956 50.1186 47.2956C49.6502 47.2956 48.8695 47.4506 48.7134 46.8303C49.6502 46.6753 50.587 46.8304 51.5238 46.6753Z" fill="white"/>
<path fill-rule="evenodd" clip-rule="evenodd" d="M32.3195 29.4629L32.4756 29.618C30.9143 30.7034 29.8213 32.5642 28.7284 33.9598C28.4162 33.8048 28.1039 34.1149 27.9478 33.8048C29.1968 32.5642 30.7581 30.8585 32.3195 29.4629Z" fill="white"/>
<path fill-rule="evenodd" clip-rule="evenodd" d="M21.2339 33.3397C22.1707 30.7036 24.5127 27.4471 27.1669 25.1211C27.323 25.2762 27.323 25.2762 27.4792 25.2762V25.4312C25.6056 27.9123 22.7952 31.0137 21.2339 33.3397Z" fill="white"/>
<path fill-rule="evenodd" clip-rule="evenodd" d="M66.6686 60.3211C63.0775 65.1282 58.5497 68.2296 54.178 69.16C55.1148 67.7644 56.8322 67.4543 58.2374 66.6789C60.8917 65.4384 63.3898 63.2674 65.8879 60.011C66.044 59.8559 66.044 59.856 66.2002 59.856C66.3563 60.1661 66.5124 60.1661 66.6686 60.3211Z" fill="white"/>
<path fill-rule="evenodd" clip-rule="evenodd" d="M72.7577 66.3689C72.4455 66.524 72.1332 66.3689 71.9771 66.524C71.8209 66.2138 71.8209 66.0588 71.6648 65.7486C72.1332 65.4385 72.6016 65.7486 72.7577 66.3689Z" fill="white"/>
<path fill-rule="evenodd" clip-rule="evenodd" d="M26.074 24.1907V24.3458C22.7952 27.137 20.4532 31.9441 18.7358 35.2005C16.8622 38.767 16.3938 42.3336 15.9254 45.2799C15.3008 44.6596 15.6131 43.7292 15.7692 42.9539C15.7692 42.1785 15.9254 41.4032 16.0815 40.6278C16.3938 39.0772 16.8622 37.3714 17.6428 35.9758C18.1112 35.0454 18.7358 34.2701 19.3603 33.1846C20.2971 31.1687 21.5461 28.8427 23.1075 26.8268C23.8881 25.8964 25.1372 24.966 25.7617 24.0356C25.7617 24.1907 25.9178 24.1907 26.074 24.1907Z" fill="white"/>
<path fill-rule="evenodd" clip-rule="evenodd" d="M34.1928 31.6338C34.349 31.6338 34.1928 31.7889 34.349 31.9439C31.3825 35.3554 30.2895 38.6118 29.1966 41.7132C28.7282 41.5581 29.0405 41.0929 29.1966 40.7828C29.665 37.9915 31.3825 34.7351 34.0367 31.7889C34.0367 31.6338 34.1928 31.6338 34.1928 31.6338Z" fill="white"/>
<path fill-rule="evenodd" clip-rule="evenodd" d="M68.5421 62.4922C68.8544 62.6473 68.6982 62.8024 69.0105 62.9574C67.4492 65.5936 64.7949 66.9891 62.6091 68.6949C62.453 68.85 62.1407 68.6949 61.9846 68.6949C61.36 69.6253 60.5794 69.7804 59.9548 70.2456C61.2039 68.5398 64.0143 67.2993 65.7317 65.5935C66.6685 64.8182 67.293 63.7327 68.386 62.8023C68.386 62.4922 68.5421 62.4922 68.5421 62.4922Z" fill="white"/>
<path fill-rule="evenodd" clip-rule="evenodd" d="M51.6795 47.9156C50.7427 47.9156 49.4937 48.0707 48.8691 47.9156C49.4937 47.2954 50.7427 47.9156 51.5234 47.6055C51.6795 47.6055 51.5234 47.7606 51.6795 47.9156Z" fill="white"/>
<path fill-rule="evenodd" clip-rule="evenodd" d="M69.4787 63.7329C69.6349 63.7329 69.6349 63.8879 69.4787 63.8879C69.791 64.1981 69.3226 64.6633 69.1665 64.8184C67.1368 67.7646 63.7018 69.7805 61.3599 71.0211C64.1702 68.695 67.2929 66.9893 69.4787 63.7329Z" fill="white"/>
<path fill-rule="evenodd" clip-rule="evenodd" d="M73.0697 67.2994C72.6013 67.4545 71.9768 67.4545 71.9768 66.8342C72.4452 66.6791 73.0697 66.6791 73.0697 67.2994Z" fill="white"/>
<path fill-rule="evenodd" clip-rule="evenodd" d="M51.6795 48.3811C51.6795 48.5361 51.5234 48.6912 51.5234 48.8463C50.7427 49.0014 49.8059 48.8463 48.713 48.8463C47.3078 48.8463 45.7465 49.6216 44.6536 48.226C45.7465 48.071 46.9955 48.3811 48.2446 48.3811C49.3375 48.3811 50.5866 48.226 51.6795 48.3811Z" fill="white"/>
<path fill-rule="evenodd" clip-rule="evenodd" d="M70.8841 67.7646C71.3525 68.6951 69.9473 69.6255 69.3228 70.5559C69.0105 70.866 69.3228 70.4008 69.0105 70.2457C68.6982 71.0211 67.9176 71.7964 66.9808 72.4167C66.9808 72.1065 67.293 71.7964 67.1369 71.3312C66.3562 72.1066 66.044 73.5022 64.7949 73.8123C64.7949 73.3471 65.1072 73.037 65.1072 72.5718C67.1369 71.3312 69.1666 69.7805 70.8841 67.7646Z" fill="white"/>
<path fill-rule="evenodd" clip-rule="evenodd" d="M61.516 59.3911C61.6722 59.8563 61.2038 60.4766 60.7354 60.9418C60.4231 60.3215 60.8915 59.8563 61.516 59.3911Z" fill="white"/>
<path fill-rule="evenodd" clip-rule="evenodd" d="M46.6835 46.6754C46.8397 46.8304 46.5274 46.9855 46.6835 46.9855C45.9029 47.1405 45.1222 47.1405 44.3416 46.9855C44.3416 46.8304 44.3416 46.6754 44.4977 46.6754C45.2783 46.5203 46.059 46.6754 46.6835 46.6754Z" fill="white"/>
<path fill-rule="evenodd" clip-rule="evenodd" d="M47.1521 47.9159C46.3714 47.7608 44.8101 48.3811 44.4978 47.4507C45.2785 47.6058 46.3714 47.2956 47.1521 47.9159Z" fill="white"/>
<path fill-rule="evenodd" clip-rule="evenodd" d="M32.6315 35.3555C31.2263 38.6119 29.8212 42.0234 29.9773 45.1248C29.1966 41.8683 30.4457 38.6119 32.6315 35.3555Z" fill="white"/>
<path fill-rule="evenodd" clip-rule="evenodd" d="M60.1109 60.6313C60.1109 61.0966 60.1109 61.5617 59.4864 61.8719C59.3303 61.5617 59.6425 61.0966 60.1109 60.6313Z" fill="white"/>
<path fill-rule="evenodd" clip-rule="evenodd" d="M57.4568 60.6316C57.3007 60.7866 56.9884 60.7866 56.8323 60.4765C56.8323 60.3214 56.9884 60.3214 56.8323 60.1663C57.3007 59.8562 57.9252 60.1664 57.4568 60.6316Z" fill="white"/>
<path fill-rule="evenodd" clip-rule="evenodd" d="M59.0179 61.562C59.3302 62.0272 59.0179 62.4924 58.5495 62.8026C58.3934 62.3374 58.5495 62.0272 59.0179 61.562Z" fill="white"/>
<path fill-rule="evenodd" clip-rule="evenodd" d="M28.4158 34.4248C28.4158 35.0451 27.7913 35.0451 27.479 35.0451C27.479 34.89 27.6351 34.7349 27.7913 34.4248C27.9474 34.4248 28.2597 34.5799 28.4158 34.4248Z" fill="white"/>
<path fill-rule="evenodd" clip-rule="evenodd" d="M27.9475 35.3555C27.9475 35.5105 27.9475 35.5106 27.9475 35.6656C27.6353 36.1308 27.323 35.8207 27.0107 36.1308C27.0107 35.5105 27.6353 35.5105 27.9475 35.3555Z" fill="white"/>
<path fill-rule="evenodd" clip-rule="evenodd" d="M58.0814 62.3369C58.2375 62.647 58.0814 63.1123 57.613 63.4224C57.1446 63.1123 57.613 62.647 58.0814 62.3369Z" fill="white"/>
<path fill-rule="evenodd" clip-rule="evenodd" d="M27.4793 36.4409C27.4793 37.0612 26.6986 37.3713 26.2302 37.0612C26.5425 36.4409 27.0109 36.596 27.4793 36.4409Z" fill="white"/>
<path fill-rule="evenodd" clip-rule="evenodd" d="M47.6202 55.5143C46.9956 55.9795 46.215 56.1345 45.4343 55.2041C46.0589 54.4288 46.5272 54.2737 47.1518 54.1187C47.464 54.5839 47.464 55.049 47.6202 55.5143Z" fill="white"/>
<path fill-rule="evenodd" clip-rule="evenodd" d="M56.9883 63.1123C57.1444 63.2674 56.8321 63.5775 56.9883 63.7326C54.1779 65.2833 51.3675 66.2137 48.5571 65.7485C48.7133 65.4383 49.1817 65.5934 49.3378 65.5934C50.2746 65.4383 51.3675 65.4383 52.6166 65.1282C54.0218 64.663 55.5831 63.8876 56.9883 63.1123Z" fill="white"/>
<path fill-rule="evenodd" clip-rule="evenodd" d="M39.1895 47.6055C38.7211 47.7605 38.2527 48.5359 38.4088 48.846C38.8772 49.3113 39.3456 49.0011 39.6579 48.5359C40.1263 48.846 39.6579 49.3112 39.1895 49.4663C38.565 49.4663 37.3159 48.846 37.3159 48.0707C37.7843 47.2954 38.565 46.8301 39.1895 47.6055Z" fill="white"/>
<path fill-rule="evenodd" clip-rule="evenodd" d="M54.9585 62.4918C54.8024 62.6469 54.6463 62.802 54.334 62.802C54.1779 62.6469 54.0217 62.4918 54.0217 62.4918C54.4901 62.0266 54.9585 62.1817 54.9585 62.4918Z" fill="white"/>
<path fill-rule="evenodd" clip-rule="evenodd" d="M26.6984 37.5264C26.6984 37.9916 26.0739 37.9916 25.9177 38.1467C25.7616 37.9916 26.0739 37.8365 26.0739 37.8365C26.23 37.5264 26.5423 37.6814 26.6984 37.5264Z" fill="white"/>
<path fill-rule="evenodd" clip-rule="evenodd" d="M53.7092 63.1125C52.1479 64.043 50.5866 64.8183 48.8691 64.3531C50.4305 63.7328 51.9918 63.5778 53.5531 62.9575C53.5531 62.9575 53.7092 62.9575 53.7092 63.1125Z" fill="white"/>
<path fill-rule="evenodd" clip-rule="evenodd" d="M26.2301 38.457C26.3862 38.9222 25.7617 38.9222 25.4495 39.0773C25.2933 38.6121 25.9178 38.6121 26.2301 38.457Z" fill="white"/>
<path fill-rule="evenodd" clip-rule="evenodd" d="M64.6385 73.1919C64.6385 73.6571 64.1701 74.7426 63.3894 74.5875C63.8578 74.1223 63.8578 73.6571 64.6385 73.1919Z" fill="white"/>
<path fill-rule="evenodd" clip-rule="evenodd" d="M61.3599 70.8657C61.3599 71.0208 61.2038 71.1759 61.2038 71.331C60.5793 71.6411 60.1109 71.9512 59.4863 72.4164C59.7986 71.486 60.7354 71.1759 61.3599 70.8657Z" fill="white"/>
<path fill-rule="evenodd" clip-rule="evenodd" d="M25.9179 39.3872C26.074 39.5423 25.7618 39.6974 25.9179 39.6974C25.7618 39.8524 25.4495 39.6973 25.2934 39.8524C25.1372 39.6973 25.4495 39.5423 25.2934 39.5423C25.4495 39.3872 25.6056 39.5423 25.9179 39.3872Z" fill="white"/>
<path fill-rule="evenodd" clip-rule="evenodd" d="M59.6424 69.7803C59.7985 70.2455 59.0178 70.7107 58.7056 71.0208C58.8617 70.4005 59.174 69.9353 59.6424 69.7803Z" fill="white"/>
<path fill-rule="evenodd" clip-rule="evenodd" d="M25.6059 40.4727C25.9181 40.6277 25.4497 40.7828 25.6059 40.9378C25.4497 41.0929 25.1375 40.9378 24.9814 41.0929C24.8252 40.9378 25.1375 40.7828 24.9814 40.4727C25.1375 40.4727 25.2936 40.6277 25.6059 40.4727Z" fill="white"/>
<path fill-rule="evenodd" clip-rule="evenodd" d="M28.7283 43.5737C28.8845 44.194 29.1967 44.9693 28.7283 45.4345C28.1038 44.8142 28.2599 43.8839 28.7283 43.5737Z" fill="white"/>
<path fill-rule="evenodd" clip-rule="evenodd" d="M58.5494 70.2456C58.3932 70.8659 57.6126 71.6412 56.988 71.6412C57.3003 71.0209 57.9248 70.4007 58.5494 70.2456Z" fill="white"/>
<path fill-rule="evenodd" clip-rule="evenodd" d="M63.0774 74.2773C63.2335 74.8976 62.7652 75.3628 62.1406 75.5179C62.2968 75.0527 62.609 74.5875 63.0774 74.2773Z" fill="white"/>
<path fill-rule="evenodd" clip-rule="evenodd" d="M19.6725 35.5107C19.8286 35.6658 19.8286 35.6658 19.9847 35.8209C19.8286 35.976 19.8286 36.2861 19.5163 36.2861C19.3602 35.9759 19.5163 35.6658 19.6725 35.5107Z" fill="white"/>
<path fill-rule="evenodd" clip-rule="evenodd" d="M59.6425 71.6411C59.3302 72.4165 58.5496 72.8817 57.925 73.0368C58.0812 72.2614 59.018 71.9512 59.6425 71.6411Z" fill="white"/>
<path fill-rule="evenodd" clip-rule="evenodd" d="M25.2934 41.5581C25.4495 41.7132 25.1372 41.8683 25.2934 42.0233C24.9811 42.1784 24.825 42.1784 24.5127 42.0233C24.6688 41.8683 24.6688 41.8682 24.5127 41.7132C24.825 41.5581 25.1372 41.7132 25.2934 41.5581Z" fill="white"/>
<path fill-rule="evenodd" clip-rule="evenodd" d="M61.8283 75.0527C61.8283 75.5179 61.516 75.9832 61.0476 76.1382C61.0476 75.8281 61.3599 75.2078 61.8283 75.0527Z" fill="white"/>
<path fill-rule="evenodd" clip-rule="evenodd" d="M24.9813 42.6436C25.2936 42.7986 24.9813 42.9537 25.1374 43.1087C24.9813 43.2638 24.669 43.2638 24.5129 43.2638C24.2006 42.6435 24.669 42.7986 24.9813 42.6436Z" fill="white"/>
<path fill-rule="evenodd" clip-rule="evenodd" d="M53.8655 68.6948C53.8655 69.6252 52.9287 69.6252 52.3042 69.7803C52.4603 68.8499 53.241 68.8499 53.8655 68.6948Z" fill="white"/>
<path fill-rule="evenodd" clip-rule="evenodd" d="M56.6761 71.1758C56.8322 71.641 56.2077 72.1062 55.7393 72.1062C55.7393 71.641 56.3638 71.4859 56.6761 71.1758Z" fill="white"/>
<path fill-rule="evenodd" clip-rule="evenodd" d="M57.7689 72.5718C57.7689 73.037 57.1444 73.5022 56.676 73.5022C56.8322 73.1921 57.4567 72.7268 57.7689 72.5718Z" fill="white"/>
<path fill-rule="evenodd" clip-rule="evenodd" d="M24.9812 43.8841C24.825 44.0391 24.5128 43.8841 24.3566 44.0391C24.2005 43.8841 24.825 43.729 24.9812 43.8841Z" fill="white"/>
<path fill-rule="evenodd" clip-rule="evenodd" d="M60.423 75.6729C60.423 75.983 60.1107 76.6033 59.6423 76.7583C59.7985 76.4482 60.1107 75.8279 60.423 75.6729Z" fill="white"/>
<path fill-rule="evenodd" clip-rule="evenodd" d="M24.8247 44.6595C24.6686 44.8145 24.3563 44.6595 24.2002 44.8145C24.2002 44.5044 24.6686 44.5044 24.8247 44.6595Z" fill="white"/>
<path fill-rule="evenodd" clip-rule="evenodd" d="M56.5201 73.0366C56.5201 73.3468 56.2078 73.5018 56.2078 73.812C55.8955 73.812 55.5833 73.967 55.271 74.1221C55.4271 73.5018 56.2078 73.1917 56.5201 73.0366Z" fill="white"/>
<path fill-rule="evenodd" clip-rule="evenodd" d="M55.2708 71.9512C55.2708 72.2613 55.1147 72.4164 54.8024 72.5714C54.6463 72.4164 55.1147 72.2613 55.2708 71.9512Z" fill="white"/>
<path fill-rule="evenodd" clip-rule="evenodd" d="M51.9922 69.1602C51.9922 69.6254 51.3677 70.2456 51.0554 70.0905C51.0554 69.7804 51.68 69.1602 51.9922 69.1602Z" fill="white"/>
<path fill-rule="evenodd" clip-rule="evenodd" d="M59.4866 76.1382C59.3305 76.7585 59.1743 77.0686 58.5498 77.2236C58.5498 76.7584 59.0182 76.2933 59.4866 76.1382Z" fill="white"/>
<path fill-rule="evenodd" clip-rule="evenodd" d="M54.3341 72.4165C54.3341 72.7266 53.8657 73.0368 53.5535 73.0368C53.5535 72.7267 54.0219 72.5716 54.3341 72.4165Z" fill="white"/>
<path fill-rule="evenodd" clip-rule="evenodd" d="M50.7429 69.3149C50.8991 69.6251 50.1184 70.2454 49.9623 70.2454C49.8061 69.9352 50.2745 69.3149 50.7429 69.3149Z" fill="white"/>
<path fill-rule="evenodd" clip-rule="evenodd" d="M55.1148 73.502C54.9586 73.9672 54.6464 74.2773 54.178 74.4324C54.3341 73.9672 54.8025 73.657 55.1148 73.502Z" fill="white"/>
<path fill-rule="evenodd" clip-rule="evenodd" d="M58.2373 76.6035C58.0812 77.0687 58.0812 77.3789 57.6128 77.5339C57.7689 77.3789 57.9251 77.0687 58.2373 76.6035Z" fill="white"/>
<path fill-rule="evenodd" clip-rule="evenodd" d="M24.5125 46.5205L24.6686 46.6756C24.5125 46.8307 24.3563 46.9857 24.2002 46.8306C24.2002 46.5205 24.3563 46.6756 24.5125 46.5205Z" fill="white"/>
<path fill-rule="evenodd" clip-rule="evenodd" d="M52.9289 72.8818C52.7727 73.5021 52.1482 73.192 51.8359 73.347C51.9921 73.0369 52.6166 73.0369 52.9289 72.8818Z" fill="white"/>
<path fill-rule="evenodd" clip-rule="evenodd" d="M35.13 59.5457C33.8809 57.995 32.3196 56.2892 32.3196 54.5835H32.4757V54.7386C32.9441 55.5139 33.2564 56.2892 33.8809 57.0646C34.3493 57.995 34.9738 58.7703 35.13 59.5457Z" fill="white"/>
<path fill-rule="evenodd" clip-rule="evenodd" d="M53.8655 73.9673C53.8655 74.4325 53.5532 74.5876 53.241 74.5876C53.241 74.2775 53.7094 73.9673 53.8655 73.9673Z" fill="white"/>
<path fill-rule="evenodd" clip-rule="evenodd" d="M57.3004 77.0684C57.3004 77.5336 56.9882 77.9988 56.5198 77.9988C56.5198 77.6886 56.9882 77.0684 57.3004 77.0684Z" fill="white"/>
<path fill-rule="evenodd" clip-rule="evenodd" d="M48.7135 69.6255C49.0258 70.0907 48.2451 70.5559 47.9329 70.5559C47.9329 70.0907 48.5574 69.7806 48.7135 69.6255Z" fill="white"/>
<path fill-rule="evenodd" clip-rule="evenodd" d="M53.0848 74.1226C53.0848 74.5878 52.4603 74.7428 52.3042 74.7428C52.1481 74.4327 52.7726 74.1226 53.0848 74.1226Z" fill="white"/>
<path fill-rule="evenodd" clip-rule="evenodd" d="M40.4385 64.3528C36.6913 63.4224 31.3828 58.15 30.7583 54.5835H30.9144C32.3196 57.3747 35.13 61.0963 38.721 63.2673C39.3456 63.5774 40.1262 63.7325 40.4385 64.3528Z" fill="white"/>
<path fill-rule="evenodd" clip-rule="evenodd" d="M56.2074 77.3789C56.2074 77.689 55.8952 78.1543 55.4268 78.3093C55.5829 77.9992 55.8952 77.3789 56.2074 77.3789Z" fill="white"/>
<path fill-rule="evenodd" clip-rule="evenodd" d="M41.0628 63.8877C41.2189 64.0428 41.2189 64.0428 41.3751 64.1978C41.2189 64.508 41.3751 64.3529 41.0628 64.508C40.7505 64.3529 40.7505 64.0428 41.0628 63.8877Z" fill="white"/>
<path fill-rule="evenodd" clip-rule="evenodd" d="M51.3675 73.3472C51.3675 73.6573 50.8991 73.6573 50.7429 73.6573C50.7429 73.3472 51.2113 73.3472 51.3675 73.3472Z" fill="white"/>
<path fill-rule="evenodd" clip-rule="evenodd" d="M51.8359 74.2773C51.6797 75.0527 50.8991 74.8976 50.4307 75.2078C50.7429 74.4324 51.5236 74.4324 51.8359 74.2773Z" fill="white"/>
<path fill-rule="evenodd" clip-rule="evenodd" d="M55.1146 77.689C55.2707 77.9991 54.8023 78.4643 54.6462 78.4643C54.49 78.3092 54.9584 77.844 55.1146 77.689Z" fill="white"/>
<path fill-rule="evenodd" clip-rule="evenodd" d="M50.1187 73.502C50.1187 73.8121 49.6503 73.9671 49.4941 73.9671C49.4941 73.5019 49.9625 73.657 50.1187 73.502Z" fill="white"/>
<path fill-rule="evenodd" clip-rule="evenodd" d="M54.3341 77.999C54.3341 78.4642 53.8657 78.9294 53.3973 78.9294C53.2411 78.3092 53.8657 77.999 54.3341 77.999Z" fill="white"/>
<path fill-rule="evenodd" clip-rule="evenodd" d="M50.2744 74.7427C50.4305 75.518 48.7131 75.8282 49.0253 75.0528C49.1815 75.2079 49.0253 75.363 49.3376 75.363C49.4937 74.7427 49.9621 74.8977 50.2744 74.7427Z" fill="white"/>
<path fill-rule="evenodd" clip-rule="evenodd" d="M27.7916 54.894C28.26 55.3592 28.4161 55.6694 28.4161 56.1346C27.7916 56.2896 27.3232 55.0491 27.7916 54.894Z" fill="white"/>
<path fill-rule="evenodd" clip-rule="evenodd" d="M48.8694 73.812C48.8694 74.1221 48.401 74.1221 48.2449 73.967C48.401 73.812 48.5571 73.812 48.8694 73.812Z" fill="white"/>
<path fill-rule="evenodd" clip-rule="evenodd" d="M52.9289 78.3091C52.9289 79.0844 51.9921 79.2395 51.5237 78.6192C51.8359 78.3091 52.4605 78.4641 52.9289 78.3091Z" fill="white"/>
<path fill-rule="evenodd" clip-rule="evenodd" d="M29.1968 57.375C29.3529 57.5301 29.1968 57.53 29.3529 57.6851C29.1968 57.9952 29.0407 57.9952 28.8845 57.6851C28.8845 57.53 29.0407 57.375 29.1968 57.375Z" fill="white"/>
<path fill-rule="evenodd" clip-rule="evenodd" d="M27.3232 58.3052C26.2303 57.3747 25.918 55.824 25.2935 54.7386C25.4496 54.5835 25.7619 54.5835 25.918 54.5835C26.5425 55.824 26.8548 57.0646 27.3232 58.3052Z" fill="white"/>
<path fill-rule="evenodd" clip-rule="evenodd" d="M41.0627 68.2295C41.2188 68.3846 41.0627 68.3846 41.0627 68.3846C39.3452 67.7643 36.691 67.2991 34.9735 66.0586C34.5051 65.7484 34.1929 65.2832 33.7245 64.9731C32.6315 64.0427 30.9141 63.4224 30.2896 61.8717C30.9141 61.2515 31.2263 62.1819 31.5386 62.492C34.349 65.4383 37.94 67.6092 41.0627 68.2295Z" fill="white"/>
<path fill-rule="evenodd" clip-rule="evenodd" d="M31.3825 59.856C31.5386 60.011 31.5386 60.011 31.6947 60.1661C31.5386 60.3211 31.5386 60.3212 31.3825 60.4762C31.2263 60.3212 31.2263 60.1661 31.3825 59.856Z" fill="white"/>
<path fill-rule="evenodd" clip-rule="evenodd" d="M34.5051 63.1123L34.6613 63.2674C34.6613 63.4224 34.6613 63.5775 34.5051 63.7326C34.1929 63.5775 34.349 63.7326 34.1929 63.4225C34.349 63.1123 34.349 63.1123 34.5051 63.1123Z" fill="white"/>
<path fill-rule="evenodd" clip-rule="evenodd" d="M28.26 58.7705C28.5723 59.0806 28.7284 59.3908 29.0407 59.7009C28.8845 60.0111 28.7284 60.011 28.5723 60.1661C28.26 59.856 28.26 59.5458 27.9478 59.2357C27.9478 59.0806 28.1039 58.9256 28.26 58.7705Z" fill="white"/>
<path fill-rule="evenodd" clip-rule="evenodd" d="M29.5087 60.3213C29.8209 60.4764 29.8209 60.7865 30.1332 60.9415C29.9771 61.2517 29.6648 61.4068 29.5087 61.4068C29.5087 61.2517 29.0403 60.9415 29.0403 60.7865C29.1964 60.7865 29.3525 60.6314 29.5087 60.3213Z" fill="white"/>
<path fill-rule="evenodd" clip-rule="evenodd" d="M21.5463 57.5303C22.6392 60.0114 24.5128 62.6475 26.6986 65.1286C27.4793 65.9039 28.1038 66.8343 28.7284 67.6097C30.1335 69.0053 32.1633 69.7806 33.7246 70.866C34.5052 71.4863 35.442 72.1066 36.2227 72.5718C37.0034 73.037 37.9401 73.1921 38.5647 73.8124C37.6279 74.1225 36.8472 73.5022 36.0666 73.037C30.2897 70.4009 22.9515 63.1127 21.3901 57.9955C21.3901 57.6853 21.3901 57.5303 21.5463 57.5303Z" fill="white"/>
<path fill-rule="evenodd" clip-rule="evenodd" d="M35.4418 76.1383C35.4418 76.4484 34.9734 76.4484 34.8172 76.7585C32.6314 75.8281 30.4455 74.5876 28.2597 73.1919C28.1035 72.8818 28.8842 73.0369 29.1965 72.8818C31.2262 74.2774 33.2559 75.6731 35.4418 76.1383Z" fill="white"/>
<path fill-rule="evenodd" clip-rule="evenodd" d="M18.4233 61.2515C20.2969 64.0427 22.6389 67.4542 26.2299 70.4004C25.9177 70.7106 25.6054 70.2454 25.2932 70.5555C22.1705 67.4542 19.3601 64.3528 18.4233 61.2515Z" fill="white"/>
<path fill-rule="evenodd" clip-rule="evenodd" d="M28.4163 72.4166C27.7918 72.5717 27.1673 72.4166 26.5427 71.7964C27.1673 71.6413 27.7918 71.6413 28.4163 72.4166Z" fill="white"/>
<path fill-rule="evenodd" clip-rule="evenodd" d="M27.167 71.3312C26.8548 71.3312 26.5425 71.1761 26.2302 71.4862C26.0741 71.3312 25.7618 71.1761 25.6057 71.021C26.2302 70.8659 26.6986 70.7109 27.167 71.3312Z" fill="white"/>
<path fill-rule="evenodd" clip-rule="evenodd" d="M13.2712 73.1917C12.9589 73.3467 12.6466 73.1917 12.3344 73.5018C12.0221 73.3468 12.1782 73.1917 11.866 73.0366C12.3344 73.0366 12.8028 72.5714 13.2712 73.1917Z" fill="white"/>
<path fill-rule="evenodd" clip-rule="evenodd" d="M14.2078 74.1225C13.7394 74.1225 12.9587 74.5877 12.6465 73.8124C13.1149 73.8124 13.5833 73.5022 14.2078 74.1225Z" fill="white"/>
<path fill-rule="evenodd" clip-rule="evenodd" d="M14.9888 74.8975C14.5204 75.2076 14.2081 75.0525 13.7398 75.2076C13.5836 75.0525 13.5836 74.8974 13.4275 74.7424C13.8959 74.7424 14.3643 74.4323 14.9888 74.8975Z" fill="white"/>
<path fill-rule="evenodd" clip-rule="evenodd" d="M15.9257 75.9831C15.3012 75.9831 14.8328 76.4483 14.2083 75.6729C14.6766 75.3628 15.3012 75.0527 15.9257 75.9831Z" fill="white"/>
<path fill-rule="evenodd" clip-rule="evenodd" d="M16.3937 76.6032C15.9253 76.7583 15.1447 77.0684 14.6763 76.2931C15.3008 76.4481 15.9253 75.9829 16.3937 76.6032Z" fill="white"/>
<path fill-rule="evenodd" clip-rule="evenodd" d="M17.3307 77.3784C16.7062 77.3784 16.0817 77.8436 15.6133 77.2233C16.0817 77.2233 16.7062 76.9132 17.3307 77.3784Z" fill="white"/>
<path fill-rule="evenodd" clip-rule="evenodd" d="M18.4235 78.6191C17.6429 78.309 16.8622 78.9292 16.0815 77.9988C16.8622 77.9988 17.6429 77.6887 18.4235 78.6191Z" fill="white"/>
<path fill-rule="evenodd" clip-rule="evenodd" d="M19.3604 79.3947C18.5797 79.5497 17.9552 79.8599 17.1746 78.9295C17.9552 79.0845 18.5797 78.4643 19.3604 79.3947Z" fill="white"/>
<path fill-rule="evenodd" clip-rule="evenodd" d="M11.2417 73.0366C11.3978 73.1917 11.2417 73.3467 11.3978 73.6569C11.0856 73.8119 11.2417 73.3467 10.9294 73.1917C11.0856 72.8815 11.0856 73.1917 11.2417 73.0366Z" fill="white"/>
<path fill-rule="evenodd" clip-rule="evenodd" d="M79.4715 17.9878C83.2186 21.2443 85.7167 25.1209 87.2781 28.5324C87.4342 27.4469 86.6535 26.3614 86.029 25.1209C83.687 20.9341 79.4714 17.0574 74.9436 12.7155C72.9139 10.6996 70.5719 8.99389 68.2299 8.21855C68.5422 9.14896 69.6351 9.30403 70.4158 9.9243C71.821 10.8547 73.3823 12.0952 74.9436 13.4908C69.9474 10.0794 64.3266 7.44323 59.3304 6.20269C58.3936 6.04762 57.4568 5.58242 56.52 5.42735C55.5832 5.27229 54.8026 5.27228 53.7096 5.27228C52.1483 5.11721 50.587 4.80708 49.0257 4.49694C47.4644 4.34187 45.903 4.34189 44.3417 4.03176C43.2488 4.49696 41.5313 4.34187 40.1261 4.49694C36.6912 4.96214 33.1002 5.7375 29.6653 7.13311C32.3195 5.89257 34.8176 4.80707 37.628 4.34186C39.0332 4.1868 40.2823 3.87668 41.6875 3.87668C43.0926 3.72161 44.4978 3.25642 45.7469 3.25642C47.3082 3.10135 49.1818 3.25642 50.7431 3.25642C55.8955 3.41149 60.7356 5.42736 66.0441 6.97803C63.0776 5.11722 59.4865 4.18679 56.3639 3.41145C62.2969 4.03172 68.8545 6.51281 74.9436 12.0952C77.2856 14.2662 79.3153 16.5922 81.345 18.7632C82.5941 20.1588 83.8432 21.3993 84.7799 22.6399C86.029 24.1905 86.8097 26.0513 87.5903 27.9121C89.9323 33.1844 90.5568 38.6118 91.3375 43.729C91.0252 43.8841 90.8691 43.8841 90.5568 44.0392C90.5568 44.3493 91.3375 43.8841 91.3375 44.5043C91.1814 44.6594 91.3375 44.8145 91.3375 45.1247C91.0252 45.4348 90.713 45.2797 90.4007 45.4348C90.5568 42.9537 89.7762 40.4726 89.62 37.8365C89.4639 35.9757 89.1517 34.1148 88.5271 32.4091C88.371 33.6496 88.8394 35.0453 89.1516 36.4409C89.3078 37.8365 89.4639 39.232 89.62 40.6277C88.5271 33.0293 86.1851 25.276 79.4715 17.9878Z" fill="white"/>
<path fill-rule="evenodd" clip-rule="evenodd" d="M18.2673 15.1966C19.2041 15.3517 19.8286 14.4213 20.297 13.9561C24.8249 10.2345 29.665 8.5287 34.3489 6.66789C36.6909 5.73748 39.3452 5.73751 41.8433 5.58244C44.4975 5.42738 46.8395 5.27231 49.3376 5.58244C51.8357 5.89258 54.3339 6.2027 56.9881 6.82297C59.4862 7.44324 62.4527 7.90843 64.6386 8.9939C67.2928 10.3895 69.791 11.3199 72.2891 13.0257C74.9433 14.8865 77.1292 17.3676 79.1589 20.0037C82.7499 24.5007 85.5603 29.7729 87.2778 34.58C90.2443 43.574 89.1513 55.049 85.0919 64.5081C84.3112 66.3689 83.0622 68.0746 81.9693 70.0905C80.8763 72.1064 79.6273 73.9672 77.7537 75.5179C74.4749 78.3091 70.8839 81.2554 67.2928 83.1162C63.7018 84.977 60.1108 86.2175 56.6758 87.1479C53.0848 88.0783 49.4938 87.4581 45.9027 88.2334C43.4046 88.0783 40.9065 88.2334 38.4084 87.7682C38.0961 87.7682 37.94 87.303 37.6277 87.303C34.9735 86.6827 32.3192 85.7523 29.5088 84.5118C26.8546 83.2713 24.0442 81.8756 21.39 79.7047C18.8919 77.6888 16.5499 74.8976 14.6763 72.5716C10.773 67.9196 8.431 62.9574 6.71354 57.9953C5.93288 55.5142 5.30835 52.878 4.99609 50.7071C4.83996 49.7766 5.15222 48.5361 5.15222 47.4507C5.15222 46.3652 4.83996 45.2797 4.99609 44.1942C5.15222 42.7986 5.46449 40.7827 5.77675 39.2321C7.18194 32.7192 10.1485 25.276 16.2376 18.6081C16.706 17.9878 17.7989 17.3676 17.4867 16.4372C16.3937 17.0574 15.4569 17.9878 14.6763 18.9182C9.52392 24.5006 6.40128 31.4787 4.83996 37.3713C4.37156 38.922 4.0593 40.3176 3.90316 41.8682C3.90316 42.3334 4.0593 42.6436 4.0593 43.1088C4.0593 44.8145 3.74703 46.5202 3.90316 48.381C4.0593 50.2419 3.74703 51.9476 4.21543 53.6534C4.37156 54.4287 4.83996 55.204 4.99609 56.1344C6.55741 61.5618 9.05553 67.1442 12.4904 72.5716C11.3975 72.7267 11.0852 71.4861 10.6168 70.7108C10.1485 69.7804 9.52392 69.0051 8.89939 68.2297C5.62062 63.1125 4.37156 57.9953 3.5909 52.878C2.81024 47.9159 2.81024 42.3334 4.21543 37.2162C4.68383 35.5105 5.46449 33.8047 5.46449 31.9439C2.65411 38.7669 2.02958 45.7449 2.96637 52.5679C3.43477 55.9794 4.21543 59.3909 5.46449 62.8024C6.86968 66.2138 8.74326 69.4703 11.0852 72.8817C10.4607 73.0368 10.3046 72.1064 9.99232 71.7962C9.21166 70.4006 7.9626 68.85 7.18194 67.4544C6.55741 66.3689 6.24515 64.9733 5.77675 63.7328C4.21543 60.1662 2.65411 56.2895 2.34184 52.5679C1.71731 47.2956 1.87345 42.9537 2.96637 37.5263C4.68383 29.7729 8.89939 22.0196 16.706 14.4213C18.4235 12.7155 20.297 11.1649 22.1706 9.92432C22.7952 9.45911 23.2636 8.83884 23.8881 8.37364C24.8249 7.5983 26.2301 7.13312 27.4791 6.35778C30.914 4.49697 34.6612 3.41148 38.0961 2.94628C43.0923 2.32601 47.7763 1.86079 52.4603 2.63612C48.557 2.48106 44.1853 2.94626 39.9697 3.41146C38.7206 3.56653 37.1593 3.7216 35.7541 4.1868C34.8173 4.49693 33.7244 5.11724 32.7876 5.58244C31.8508 6.04765 30.6018 6.20269 29.665 6.66789C27.6353 7.75336 25.7617 9.14896 23.5758 10.3895C21.39 11.63 19.5164 13.1808 17.6428 14.8865C14.9885 17.2125 12.3343 20.3138 10.4607 23.1051C12.9588 20.624 15.4569 17.0574 18.5796 14.8865C19.3603 14.2662 18.2673 14.8865 18.2673 15.1966ZM47.6202 35.3554C49.806 35.8206 51.8357 35.8206 53.8655 35.5105C58.8617 34.5801 63.8579 27.7571 64.3263 22.95C64.4825 21.5544 64.7947 20.1588 64.6386 19.2284C64.4825 18.453 64.1702 17.8328 64.0141 17.0574C63.8579 16.2821 63.7018 15.6618 63.5457 14.8865C62.6089 13.3358 61.2037 11.3199 59.3301 9.92432C57.9249 8.83884 56.6758 8.37366 55.4268 7.90846C53.2409 6.97805 50.7428 6.35776 48.8692 6.82297C52.6164 7.5983 57.6126 8.37363 61.2037 12.8706C61.8282 13.6459 62.4527 15.0415 62.9211 16.127C64.1702 18.9182 64.1702 22.6399 63.0773 25.4311C61.6721 29.1527 58.8617 32.5642 55.7391 33.9598C53.8655 34.8902 51.0551 35.3554 48.8692 35.2003C47.6202 35.0452 46.0589 34.5801 44.9659 34.2699C44.3414 34.1149 43.873 33.6497 43.2485 33.4946C44.1853 34.7351 46.215 35.0452 47.6202 35.3554ZM75.8801 29.7729C76.1924 29.6179 76.3485 29.6179 76.6608 29.3078C75.8801 28.9976 75.2556 29.4628 74.4749 29.6179C72.9136 29.773 71.8207 29.3077 70.2593 29.7729C69.6348 29.928 69.0103 30.0831 68.3858 30.2382C67.7612 30.5483 67.1367 31.3236 66.5122 31.7888C65.4193 32.7193 64.4825 33.1844 63.3895 34.58C61.9843 36.4409 60.7353 40.0074 60.7353 41.7132C60.7353 45.9 62.2966 49.6216 66.1999 52.878C66.0438 53.0331 65.7315 53.3432 65.5754 53.3432C64.9508 52.5679 64.1702 51.9476 63.5457 51.1723C62.9211 50.3969 62.4527 49.4665 61.6721 49.3115C62.6089 51.4824 64.7947 54.1186 67.2928 55.5142C71.1961 57.53 76.6608 57.6851 80.0957 55.5142C81.8131 54.4287 83.5306 51.7926 84.1551 50.552C81.657 53.0331 79.4711 55.5142 76.973 56.2895C76.0362 56.5996 74.6311 56.4446 73.5381 56.4446C72.2891 56.4446 71.04 56.2895 69.9471 55.6692C70.2593 55.5142 70.5716 55.0489 71.04 55.3591C70.8839 55.5141 70.5716 55.6692 70.8839 55.8243C71.3523 55.3591 71.9768 55.6693 72.4452 55.2041C73.382 55.8243 74.3188 55.3591 74.9433 55.9794C75.2556 55.8243 75.0994 55.5141 75.4117 55.3591C76.8169 55.3591 78.2221 54.2736 79.6273 53.6534C80.4079 52.5679 81.657 51.9476 82.5938 50.8621C84.6235 48.3811 86.1848 44.8145 86.0287 42.4885C85.8726 40.7828 85.0919 37.3713 83.6867 35.8206C82.5938 34.425 81.3447 33.1844 79.7834 31.6338C80.0957 31.4787 80.4079 31.1685 80.7202 31.3236C82.4377 32.7192 83.999 34.5801 85.0919 35.8206C84.9358 34.7351 83.999 33.4946 83.2183 32.7193C81.657 31.1686 79.315 28.9976 77.7537 28.5324C74.1627 27.2919 69.9471 27.2919 66.8244 29.7729C67.6051 29.928 68.2296 29.4628 69.0103 29.3078C71.8207 28.5324 74.7872 28.5324 77.4414 29.6179C76.973 29.3078 76.5046 30.0831 75.8801 29.7729ZM58.5494 11.6301C57.9249 11.1649 57.3004 10.5446 56.6758 10.0794C54.0216 8.52872 49.6499 7.59829 46.8395 8.21856C45.4343 8.5287 43.2485 9.61418 41.9994 10.6997C38.2522 14.1111 36.2225 19.3834 37.0032 22.4848C37.4716 24.3456 37.6277 26.8267 39.189 28.2223C39.9697 28.8425 40.4381 29.6179 41.0626 30.2382C41.6872 30.7034 42.3117 31.0135 42.7801 31.4787C43.2485 31.7888 43.4046 32.254 43.873 32.5642C44.9659 33.3395 46.5273 33.4946 47.7763 33.8047C49.9622 34.2699 51.3674 34.2699 53.2409 33.6496C53.7093 33.4946 54.3339 33.3395 54.8023 33.0294C57.1442 31.9439 58.7056 30.2382 60.2669 27.9122C60.8914 26.8267 61.6721 25.7412 61.9843 24.8108C63.5457 20.4689 61.8282 15.1966 58.7056 11.475H58.5494C58.7056 11.475 58.5494 11.475 58.5494 11.6301ZM86.9655 42.0233C87.1216 40.3176 86.6532 38.1466 85.5603 36.751C86.0287 38.4567 86.341 40.3176 86.9655 42.0233ZM37.4716 13.9561C36.8471 15.0416 36.6909 16.2821 35.7541 17.3675C34.9735 20.4689 34.6612 23.5702 36.6909 26.6716C36.8471 25.276 35.7541 24.0355 35.7541 22.4848C35.7541 21.2443 36.2225 19.5385 36.5348 17.9878C37.0032 16.4372 37.94 14.5764 38.8768 13.3358C41.0626 10.3895 43.4046 8.83886 45.5905 7.90846C46.0589 7.75339 46.6834 7.59828 46.6834 7.28815C43.7169 6.82295 39.5013 10.5446 37.4716 13.9561ZM86.4971 46.055C86.8094 45.7449 86.8094 45.4348 86.6532 45.2797C86.341 45.4348 86.1848 45.7449 86.4971 46.055ZM84.9358 49.3115C85.5603 48.8463 85.8726 47.9159 86.0287 47.1405C85.248 47.6057 84.7796 48.6912 84.9358 49.3115ZM63.7018 32.099C61.2037 34.58 59.174 38.4567 58.8617 40.7827C58.8617 41.5581 59.0178 42.6436 59.174 43.574C59.3301 45.2797 59.6424 46.8304 61.0475 48.381C61.3598 48.0709 60.8914 47.7608 60.8914 47.4507C60.7353 47.1405 60.8914 46.6753 60.7353 46.3652C60.5792 45.7449 60.1108 45.2797 59.9546 44.8145C58.7056 40.3176 61.3598 35.5105 65.2631 30.8584C64.7947 31.0135 64.3263 31.6338 63.7018 32.099ZM55.5829 39.6973C53.8655 36.596 48.7131 40.7827 52.3041 42.9537C53.3971 43.2638 54.6461 43.2638 55.7391 41.7132C55.7391 40.9378 55.8952 40.3176 55.5829 39.6973ZM37.6277 28.3773C38.0961 28.8425 38.0961 29.6179 38.7206 29.7729C39.3452 29.3077 38.0961 28.2223 37.6277 28.3773ZM39.9697 30.7034C39.3452 31.1686 40.4381 31.9439 40.9065 31.7888C40.9065 31.3236 40.282 30.8584 39.9697 30.7034ZM29.3527 23.2601C27.4791 22.3297 25.9178 21.3993 24.3565 21.3993C23.8881 21.3993 23.4197 21.5544 22.7952 21.5544C21.39 21.5544 20.4532 21.5544 19.2041 22.1746C18.5796 22.4848 17.7989 22.6399 17.4867 23.2601C20.1409 22.7949 22.7952 22.1746 25.7617 22.95C27.6353 23.4152 30.6018 24.5006 32.3192 25.8963C33.5683 26.9817 34.0367 28.2223 35.1296 29.1527C35.2857 26.5165 32.007 24.5007 29.3527 23.2601ZM44.3414 41.248C46.6834 40.6277 46.5273 37.6814 44.6537 36.751C43.7169 36.2858 42.4678 36.9061 41.3749 38.1466C40.9065 39.6973 42.9362 41.5581 44.3414 41.248ZM54.3339 49.1564C53.5532 50.552 55.5829 52.4128 56.832 52.1027C59.0178 51.6375 59.3301 49.0013 56.9881 48.0709C56.0513 47.7608 54.8023 48.381 54.3339 49.1564ZM37.0032 38.922C37.0032 37.5264 37.3155 35.8206 37.1593 34.2699C37.0032 32.5642 36.5348 31.0135 35.9103 29.4628H35.7541C35.598 29.6179 35.598 29.4628 35.4419 29.6179C35.4419 31.0135 36.2225 32.099 36.5348 33.3395C37.1593 37.2162 35.7541 41.0929 33.0999 45.1247C35.4419 43.1088 36.3787 40.9378 37.0032 38.922ZM68.2296 58.7706C66.0438 57.0648 64.0141 56.1345 61.8282 55.9794C62.2966 56.7547 63.5457 56.7547 64.4825 57.2199C66.356 58.1503 68.5419 59.5459 69.7909 61.5618C69.4787 61.7169 69.3225 61.8719 69.0103 61.7169C64.4825 57.0648 59.174 55.9794 54.6461 57.6851C52.4603 58.4604 50.5867 59.3908 48.7131 61.7169C46.8395 64.353 45.5905 67.9196 46.0588 70.8658C46.3711 72.7266 47.3079 74.7425 48.2447 76.6034C49.0254 77.999 50.5867 80.1699 52.148 80.9452C54.49 82.1858 58.081 83.1162 60.5792 82.651C63.0773 82.1858 66.6683 80.48 68.8542 77.9989C70.1032 76.4483 70.8839 75.2078 71.5084 73.8122C71.6645 73.347 71.9768 73.0368 72.1329 72.7267C72.7575 71.176 72.1329 69.3152 72.1329 67.7645C72.4452 67.9196 72.9136 67.6094 72.9136 67.9196C73.0697 68.3848 72.6013 68.2297 72.2891 68.5398C72.4452 68.85 72.6013 68.3848 72.9136 68.6949C73.2259 72.2615 71.5084 76.2932 67.7612 79.8598C66.8244 80.7902 65.8876 81.2554 64.9509 82.1858C67.9174 82.0307 70.5716 78.154 72.1329 75.3628C72.9136 73.9672 73.382 72.4165 73.8504 71.3311C74.3188 70.4007 73.6943 68.0746 73.5381 66.9891C73.2259 65.2834 72.1329 63.4226 71.1961 62.027C71.04 61.8719 71.1961 61.7169 71.3523 61.5618C70.2593 61.0966 69.3225 59.701 68.2296 58.7706ZM23.5758 48.8463C25.6055 48.6912 27.7914 47.7608 29.665 46.5203C30.2895 46.0551 31.0702 45.7449 31.5386 44.9696C34.1928 42.1784 36.6909 37.9916 35.9103 34.2699C35.9103 33.9598 35.7541 33.6497 35.598 33.3395C35.1296 31.3236 34.5051 29.773 33.0999 27.9122C30.914 24.5007 27.4791 23.5702 24.8249 22.7949C23.8881 23.105 22.7952 22.7949 21.7022 22.95C20.297 23.105 18.5796 23.7253 17.0183 24.5007C10.773 27.7571 8.27487 34.425 10.1485 39.5422C10.9291 41.7132 12.3343 44.1942 14.5202 46.055C15.7692 47.1405 17.0183 47.2956 18.5796 48.381C20.4532 48.5361 22.0145 49.1564 23.5758 48.8463ZM47.3079 43.4189C47.9324 43.1088 48.557 43.4189 49.1815 43.1088C45.1221 40.9378 41.6872 47.1405 44.3414 50.0868C45.2782 51.1723 47.3079 51.7925 48.557 51.4824C49.1815 51.3273 50.2744 50.8621 50.2744 49.9317C49.1815 50.552 48.0886 50.552 46.9956 50.2419C48.0886 50.0868 49.1815 50.2419 50.1183 49.7767C48.7131 49.1564 46.215 50.7071 45.2782 49.1564C47.3079 49.4665 49.3376 49.1564 51.3673 49.0014C51.5235 49.1564 51.0551 49.4666 51.2112 49.7767C52.6164 48.226 52.7725 46.6753 51.9919 45.1247C51.9919 44.9696 52.148 45.1246 52.3041 44.8145C51.8357 44.5044 51.3673 44.6594 50.899 44.0392C50.5867 44.0392 50.5867 44.1942 50.5867 44.5044C49.1815 44.3493 47.3079 44.5044 46.0588 44.1942C46.9956 43.1088 48.0886 43.7291 49.1815 43.574C48.557 43.574 47.6202 43.729 47.3079 43.4189ZM60.5792 55.9794C56.0513 55.5142 48.7131 57.0648 46.5273 63.4226C47.3079 62.3371 47.7763 61.5618 48.8692 60.6314C51.6796 58.1503 54.6461 56.9098 57.4565 56.5997C58.3933 56.4446 59.6424 56.7547 60.5792 55.9794C60.7353 56.1345 60.5792 56.1345 60.5792 55.9794ZM15.3008 23.7253C11.7098 26.5165 8.431 31.0135 9.05553 34.1149C9.52392 31.9439 10.4607 29.6179 12.3343 27.4469C13.7395 25.7412 15.6131 24.8108 17.1744 23.4152L17.0183 23.2601C16.3937 23.4152 15.9253 23.8804 15.3008 23.7253ZM46.0588 57.8402C46.9956 58.1503 48.557 57.2199 48.8692 56.1344C49.1815 55.204 48.557 53.6533 47.464 53.0331C46.3711 52.5679 44.9659 53.6533 44.1853 54.5837C44.4975 55.8243 44.8098 57.375 46.0588 57.8402ZM41.2188 49.1564C41.6872 48.226 40.9065 46.8304 39.8136 46.2101C38.7206 45.5898 37.4716 46.2101 36.5348 47.4507C36.0664 50.0868 39.6574 52.1027 41.2188 49.1564ZM8.11873 27.2919C8.58713 26.8267 9.05553 25.8963 9.05553 25.4311C8.431 25.8963 7.4942 26.8267 8.11873 27.2919ZM28.4159 48.0709C27.323 48.5361 26.0739 49.1564 24.981 49.3115C23.5758 49.4665 22.0145 49.3114 20.6093 49.1564C19.8286 49.1564 19.2041 49.0013 18.4235 48.8463C17.7989 48.6912 17.0183 48.0709 16.2376 48.381C18.4235 50.2419 20.6093 49.7767 22.7952 50.2419C25.1371 50.3969 27.0107 49.3114 29.3527 48.381C30.2895 47.9158 31.2263 47.6057 32.1631 46.5203V46.3652C30.914 46.5203 29.5088 47.6057 28.4159 48.0709ZM41.6872 73.6571C43.0923 71.4861 43.0923 69.7804 43.2485 67.4544C43.5607 63.8878 43.2485 60.7865 40.7504 57.5301C39.9697 56.5997 38.7206 55.2041 37.94 54.4287C35.4419 52.2578 32.9437 51.9476 30.1334 51.9476C27.9475 51.7926 26.2301 51.9476 24.2003 52.5679C23.5758 52.723 22.9513 52.7229 22.639 53.0331C21.39 53.6533 18.5796 55.6692 17.6428 57.0648C15.6131 60.0111 14.0518 64.6632 14.6763 67.6095C14.6763 67.9196 14.6763 68.2297 14.9886 68.5398C15.4569 67.1442 15.3008 65.7486 15.6131 64.353C15.9253 62.9574 16.3937 61.4067 17.0183 60.0111C18.1112 57.9952 20.297 55.8243 22.1706 54.5837C24.8249 52.878 27.323 52.878 29.9772 53.0331C31.0702 53.0331 32.3192 53.1882 33.256 53.4983C35.598 54.1186 37.94 55.8243 39.8136 57.6851C42.3117 60.6314 42.7801 63.7327 42.6239 66.9891C42.6239 68.2297 42.4678 69.6253 42.3117 70.4007C41.531 73.0368 39.8136 75.5179 37.3155 78.154C39.189 77.3787 40.4381 75.5179 41.6872 73.6571ZM6.24515 30.2382C6.55741 29.773 6.86968 29.3078 6.71354 28.6875C6.40128 29.1527 5.62062 29.928 6.24515 30.2382ZM41.6872 62.9574C41.6872 62.6473 41.8433 62.3372 41.6872 62.027C41.3749 60.9415 40.1258 59.5459 39.0329 58.3054C37.0032 56.1345 35.1296 54.8939 32.9438 54.2736C32.1631 53.9635 30.914 53.6534 30.1334 53.4983C29.665 53.4983 29.0404 53.4983 28.4159 53.4983C24.5126 53.1882 19.9848 55.5142 17.4867 60.3213C17.0183 61.2517 16.2376 62.3371 15.9253 63.2675C15.4569 64.6631 15.7692 67.2993 16.2376 69.1601C17.0183 72.5716 18.8919 75.9831 22.7952 78.154C23.8881 78.7743 24.981 78.9293 26.0739 79.3945C27.7914 78.9293 29.5088 79.5497 31.3824 79.2395C33.256 78.9294 35.598 77.6888 37.3155 76.2932C40.9065 73.0368 41.8433 69.005 41.9994 65.5935C42.1555 64.6631 41.8433 63.7328 41.6872 62.9574ZM46.215 64.9733C46.0589 64.8182 46.215 64.6631 46.0588 64.6631C44.6537 67.9195 44.1853 71.9513 45.7466 74.8976C46.6834 76.7584 47.464 79.2395 49.9622 80.48C45.5905 75.5179 44.4975 70.2456 46.215 64.9733ZM57.6126 83.2712C55.2707 83.2712 53.2409 82.1858 50.7428 81.4105C53.8655 83.7365 57.4565 84.2017 60.5792 84.2017C61.9843 84.2017 63.5457 83.7365 64.6386 82.8061C64.6386 82.8061 64.7947 82.8061 64.6386 82.8061V82.651C62.2966 82.806 59.9546 83.2712 57.6126 83.2712ZM11.2414 44.0392C11.5536 44.5044 12.1782 45.2797 12.8027 45.2797C10.4607 42.0233 9.36779 38.7669 8.74326 35.3554C8.27487 37.9915 9.21166 41.5581 11.2414 44.0392ZM13.5834 46.3652C13.7395 46.5203 13.5834 46.5203 13.4272 46.6753C13.7395 47.1405 14.5202 47.9158 14.9886 47.6057C15.1447 47.1405 14.0518 46.5203 13.5834 46.3652ZM35.9103 78.6192C35.7541 78.6192 35.7541 78.6192 35.598 78.6192C34.3489 78.7743 33.0999 79.5496 31.8508 79.7047C30.6018 80.0148 29.3527 80.1699 27.9475 80.0149C25.6055 79.7047 22.1706 78.7743 19.9848 76.9135C18.8919 75.9831 18.2673 74.2774 16.8621 73.6571C17.9551 75.9831 19.9848 77.8439 22.1706 78.9294C22.9513 79.3946 23.732 79.8597 24.5126 80.1699C25.4494 80.48 26.3862 80.325 27.4791 80.48C27.9475 80.48 28.4159 80.7902 28.7282 80.7902C29.3527 80.7902 29.9772 80.6351 30.6018 80.48C32.4754 80.325 34.6612 80.1699 36.0664 78.7743C35.9103 78.7743 36.0664 78.6192 35.9103 78.6192ZM15.6131 70.2456C15.6131 70.8658 15.6131 71.4861 16.2376 71.9513C16.3937 71.4861 16.3937 70.2456 15.6131 70.2456Z" fill="white"/>
<path fill-rule="evenodd" clip-rule="evenodd" d="M38.8772 17.5229C43.5612 15.507 49.0258 15.507 54.1782 16.4374C56.5201 16.9026 58.2376 17.3678 60.4234 18.4533C60.2673 18.7634 60.1112 18.4533 59.955 18.4533C58.5499 17.9881 56.6763 17.3678 55.1149 17.0577C49.8065 15.9722 44.0296 16.4374 38.8772 17.5229Z" fill="white"/>
<path fill-rule="evenodd" clip-rule="evenodd" d="M91.0249 48.5359C91.181 48.691 91.4933 48.5359 91.6494 48.3809C91.3371 54.5836 90.5565 60.7863 87.4338 67.144C89.1513 62.6471 90.7126 58.3052 91.0249 53.8082C91.3371 51.9474 91.0249 50.2417 91.0249 48.5359Z" fill="white"/>
<path fill-rule="evenodd" clip-rule="evenodd" d="M70.4155 30.7036C71.3523 31.3239 71.8207 32.5645 72.2891 33.4949C73.6943 36.2861 74.7872 39.3874 75.0995 42.3337C75.5679 46.3654 76.0363 50.5523 74.7872 54.429C75.724 46.3655 75.724 38.457 70.4155 30.7036Z" fill="white"/>
<path fill-rule="evenodd" clip-rule="evenodd" d="M51.9921 20.0039C51.6799 20.7792 50.5869 20.6242 49.9624 20.6242C50.4308 20.4691 51.3676 20.0039 51.9921 20.0039Z" fill="white"/>
<path fill-rule="evenodd" clip-rule="evenodd" d="M49.1814 20.0039C49.1814 20.159 48.5569 20.4691 48.4008 20.6242C45.4343 20.159 42.6239 21.2444 39.6574 22.0198C39.189 22.1748 38.7206 22.3299 38.2522 22.1748C38.2522 21.2444 39.8135 21.0894 40.5942 20.7792C43.2484 20.0039 46.5272 20.0039 49.1814 20.0039Z" fill="white"/>
<path fill-rule="evenodd" clip-rule="evenodd" d="M53.7095 24.3455C53.2411 24.6556 52.9288 24.9658 52.4604 24.9658C52.6166 24.8107 53.3972 24.1904 53.7095 24.3455Z" fill="white"/>
<path fill-rule="evenodd" clip-rule="evenodd" d="M41.5309 90.2492C38.4083 89.4739 35.2857 89.0087 32.163 87.9232C30.6017 87.3029 29.0404 86.6827 27.3229 86.0624C24.3564 84.8219 21.546 83.4263 18.4234 80.3249C18.4234 80.0148 18.8918 80.1698 19.0479 80.1698C19.5163 80.1698 19.6724 79.8597 19.9847 80.3249C20.4531 80.7901 19.204 80.3249 18.8918 80.6351C19.5163 81.5655 20.4531 80.1699 21.3899 81.2553C21.7021 81.5655 21.0776 81.2553 21.0776 81.4104C24.9809 84.6668 30.9139 87.1479 35.1295 88.5435C38.4083 89.3189 41.8432 89.7841 45.122 89.9391C47.7762 89.629 50.8989 89.629 53.8654 89.629C54.1776 89.3188 53.8654 89.3189 54.1776 89.1638C62.6088 87.7682 71.5083 84.2016 79.3149 76.2932C80.564 75.0526 81.813 73.1918 83.0621 73.657C78.8465 78.4641 74.4748 81.8756 70.2593 84.5118C67.2927 86.3726 64.014 87.7682 60.7352 88.8536C59.1739 89.3188 57.4564 89.629 55.8951 90.0942C53.397 90.7145 51.2111 91.0246 48.713 91.1796C51.6795 91.7999 54.646 90.8695 57.6125 90.0942C60.5791 89.3189 63.7017 88.6986 66.5121 87.303C67.1366 86.9928 67.9173 86.5276 68.5418 86.2175C73.3819 83.4263 79.1588 79.3945 83.5305 73.8121C83.3744 74.7425 82.5937 75.2077 82.1253 75.828C75.88 83.5813 67.7611 87.458 60.7352 89.784C58.2371 90.7145 55.2706 91.6448 52.7725 91.7999C50.1182 91.955 47.3078 92.2651 44.6536 91.7999C41.9993 91.3347 39.3451 91.0246 36.5347 90.4043C33.8805 89.9391 31.2262 88.6986 28.2597 87.458C25.4493 86.2175 22.3267 84.8219 19.9847 82.9611C17.3304 80.9452 14.0517 77.6888 12.6465 75.3628C14.6762 77.6888 17.6427 80.3249 20.1408 82.3408C20.7654 82.9611 21.3899 83.5813 22.1705 84.2016C23.5757 85.2871 25.4493 85.7523 27.1668 86.5276C31.8507 88.2334 36.847 90.2492 41.5309 90.2492Z" fill="white"/>
<path fill-rule="evenodd" clip-rule="evenodd" d="M22.4833 56.2896C25.4498 61.4068 31.8512 69.1602 38.2526 71.3311C38.4088 71.6413 37.3158 71.176 36.8475 71.021C34.0371 69.9355 31.0706 68.3848 28.1041 65.4385C26.855 64.0429 25.6059 62.4923 24.513 60.9416C23.5762 59.3909 22.3272 57.8402 22.4833 56.2896Z" fill="white"/>
<path fill-rule="evenodd" clip-rule="evenodd" d="M54.4902 41.248C54.1779 42.1785 52.7727 42.3335 52.4604 41.248C53.2411 41.248 53.8656 41.4031 54.4902 41.248Z" fill="white"/>
</svg>
